<?xml version="1.0" encoding="utf-8"?>
<!-- Generator: Adobe Illustrator 18.1.1, SVG Export Plug-In . SVG Version: 6.00 Build 0)  -->
<!DOCTYPE svg PUBLIC "-//W3C//DTD SVG 1.1//EN" "http://www.w3.org/Graphics/SVG/1.1/DTD/svg11.dtd">
<svg version="1.1" id="Layer_1" xmlns="http://www.w3.org/2000/svg" xmlns:xlink="http://www.w3.org/1999/xlink" x="0px" y="0px"
	 viewBox="0 0 81.707 81.707" style="enable-background:new 0 0 81.707 81.707;" xml:space="preserve">
<style type="text/css">
	.st0{fill:none;stroke:#BCF171;stroke-width:3;stroke-linecap:round;stroke-linejoin:round;stroke-miterlimit:10;}
	.st1{fill:none;stroke:#BCF171;stroke-width:3.3188;stroke-linecap:round;stroke-linejoin:round;stroke-miterlimit:10;}
	.st2{fill:none;stroke:#BCF171;stroke-width:3.3188;stroke-miterlimit:10;}
	.st3{fill:none;stroke:#BCF171;stroke-width:3.3188;stroke-linecap:round;stroke-miterlimit:10;}
	.st4{fill:none;stroke:#BCF171;stroke-width:2.3869;stroke-linecap:round;stroke-linejoin:round;stroke-miterlimit:10;}
	.st5{fill:none;stroke:#BCF171;stroke-width:2.8271;stroke-linecap:round;stroke-linejoin:round;stroke-miterlimit:10;}
	.st6{fill:none;stroke:#BCF171;stroke-width:2.717;stroke-linecap:round;stroke-linejoin:round;stroke-miterlimit:10;}
	.st7{fill:none;stroke:#BCF171;stroke-width:3.5492;stroke-linecap:round;stroke-linejoin:round;stroke-miterlimit:10;}
	.st8{fill:#BCF171;}
	.st9{fill:none;stroke:#2F2933;stroke-width:3;stroke-linecap:round;stroke-linejoin:round;stroke-miterlimit:10;}
	.st10{fill:none;stroke:#2F2933;stroke-width:3.3188;stroke-linecap:round;stroke-linejoin:round;stroke-miterlimit:10;}
	.st11{fill:none;stroke:#2F2933;stroke-width:3.3188;stroke-miterlimit:10;}
	.st12{fill:none;stroke:#2F2933;stroke-width:3.3188;stroke-linecap:round;stroke-miterlimit:10;}
	.st13{fill:none;stroke:#2F2933;stroke-width:2.3869;stroke-linecap:round;stroke-linejoin:round;stroke-miterlimit:10;}
	.st14{fill:none;stroke:#2F2933;stroke-width:2.8271;stroke-linecap:round;stroke-linejoin:round;stroke-miterlimit:10;}
	.st15{fill:none;stroke:#2F2933;stroke-width:2.717;stroke-linecap:round;stroke-linejoin:round;stroke-miterlimit:10;}
	.st16{fill:none;stroke:#2F2933;stroke-width:3.5492;stroke-linecap:round;stroke-linejoin:round;stroke-miterlimit:10;}
	.st17{fill:#2F2933;}
	.st18{fill:none;stroke:#FFFFFF;stroke-width:3;stroke-linecap:round;stroke-linejoin:round;stroke-miterlimit:10;}
	.st19{fill:none;stroke:#FFFFFF;stroke-width:3.3188;stroke-linecap:round;stroke-linejoin:round;stroke-miterlimit:10;}
	.st20{fill:none;stroke:#FFFFFF;stroke-width:3.3188;stroke-miterlimit:10;}
	.st21{fill:none;stroke:#FFFFFF;stroke-width:3.3188;stroke-linecap:round;stroke-miterlimit:10;}
	.st22{fill:none;stroke:#FFFFFF;stroke-width:2.3869;stroke-linecap:round;stroke-linejoin:round;stroke-miterlimit:10;}
	.st23{fill:none;stroke:#FFFFFF;stroke-width:2.8271;stroke-linecap:round;stroke-linejoin:round;stroke-miterlimit:10;}
	.st24{fill:none;stroke:#FFFFFF;stroke-width:2.717;stroke-linecap:round;stroke-linejoin:round;stroke-miterlimit:10;}
	.st25{fill:none;stroke:#FFFFFF;stroke-width:3.5492;stroke-linecap:round;stroke-linejoin:round;stroke-miterlimit:10;}
	.st26{fill:#FFFFFF;}
	.st27{fill:none;stroke:#2F2933;stroke-width:4.75;stroke-miterlimit:10;}
	.st28{fill:none;stroke:#BCF171;stroke-width:4.75;stroke-miterlimit:10;}
	.st29{fill:none;stroke:#FFFFFF;stroke-width:4.75;stroke-miterlimit:10;}
	.st30{fill:none;stroke:#2F2933;stroke-width:3;stroke-miterlimit:10;}
	.st31{fill:none;stroke:#BCF171;stroke-width:3;stroke-miterlimit:10;}
	.st32{fill:none;stroke:#FFFFFF;stroke-width:3;stroke-miterlimit:10;}
</style>
<g>
	<rect x="28.64" y="61.209" class="st18" width="24.426" height="18.998"/>
	<path class="st18" d="M4.214,80.207V15.07c0-7.495,6.076-13.57,13.57-13.57h46.139c7.495,0,13.57,6.076,13.57,13.57v65.137H4.214z"
		/>
	<rect x="9.642" y="61.209" class="st18" width="13.57" height="13.57"/>
	<line class="st18" x1="40.854" y1="61.209" x2="40.854" y2="80.207"/>
	<line class="st18" x1="16.427" y1="61.209" x2="16.427" y2="74.779"/>
	<rect x="58.495" y="61.209" class="st18" width="13.57" height="13.57"/>
	<line class="st18" x1="65.28" y1="61.209" x2="65.28" y2="74.779"/>
	<line class="st18" x1="38.14" y1="72.065" x2="43.568" y2="72.065"/>
	<rect x="58.495" y="28.64" class="st18" width="13.57" height="13.57"/>
	<line class="st18" x1="65.28" y1="28.64" x2="65.28" y2="42.211"/>
	<line class="st18" x1="73.422" y1="42.211" x2="57.138" y2="42.211"/>
	<rect x="34.069" y="28.64" class="st18" width="13.57" height="13.57"/>
	<line class="st18" x1="40.854" y1="28.64" x2="40.854" y2="42.211"/>
	<line class="st18" x1="48.996" y1="42.211" x2="32.711" y2="42.211"/>
	<rect x="9.642" y="28.64" class="st18" width="13.57" height="13.57"/>
	<rect x="17.784" y="5.571" class="st18" width="5.428" height="5.428"/>
	<rect x="31.354" y="5.571" class="st18" width="5.428" height="5.428"/>
	<rect x="44.925" y="5.571" class="st18" width="5.428" height="5.428"/>
	<rect x="58.495" y="5.571" class="st18" width="5.428" height="5.428"/>
	<line class="st18" x1="16.427" y1="28.64" x2="16.427" y2="42.211"/>
	<line class="st18" x1="24.569" y1="42.211" x2="8.285" y2="42.211"/>
	<line class="st18" x1="24.569" y1="74.779" x2="8.285" y2="74.779"/>
	<line class="st18" x1="73.422" y1="74.779" x2="57.138" y2="74.779"/>
	<line class="st18" x1="9.642" y1="20.498" x2="9.642" y2="23.212"/>
	<line class="st18" x1="15.07" y1="20.498" x2="15.07" y2="23.212"/>
	<line class="st18" x1="20.498" y1="20.498" x2="20.498" y2="23.212"/>
	<line class="st18" x1="25.926" y1="20.498" x2="25.926" y2="23.212"/>
	<line class="st18" x1="31.354" y1="20.498" x2="31.354" y2="23.212"/>
	<line class="st18" x1="36.783" y1="20.498" x2="36.783" y2="23.212"/>
	<line class="st18" x1="44.925" y1="20.498" x2="44.925" y2="23.212"/>
	<line class="st18" x1="50.353" y1="20.498" x2="50.353" y2="23.212"/>
	<line class="st18" x1="55.781" y1="20.498" x2="55.781" y2="23.212"/>
	<line class="st18" x1="61.209" y1="20.498" x2="61.209" y2="23.212"/>
	<line class="st18" x1="66.637" y1="20.498" x2="66.637" y2="23.212"/>
	<line class="st18" x1="72.065" y1="20.498" x2="72.065" y2="23.212"/>
	<line class="st18" x1="9.642" y1="53.067" x2="9.642" y2="55.781"/>
	<line class="st18" x1="15.07" y1="53.067" x2="15.07" y2="55.781"/>
	<line class="st18" x1="20.498" y1="53.067" x2="20.498" y2="55.781"/>
	<line class="st18" x1="25.926" y1="53.067" x2="25.926" y2="55.781"/>
	<line class="st18" x1="31.354" y1="53.067" x2="31.354" y2="55.781"/>
	<line class="st18" x1="36.783" y1="53.067" x2="36.783" y2="55.781"/>
	<line class="st18" x1="44.925" y1="53.067" x2="44.925" y2="55.781"/>
	<line class="st18" x1="50.353" y1="53.067" x2="50.353" y2="55.781"/>
	<line class="st18" x1="55.781" y1="53.067" x2="55.781" y2="55.781"/>
	<line class="st18" x1="61.209" y1="53.067" x2="61.209" y2="55.781"/>
	<line class="st18" x1="66.637" y1="53.067" x2="66.637" y2="55.781"/>
	<line class="st18" x1="72.065" y1="53.067" x2="72.065" y2="55.781"/>
	<line class="st18" x1="80.207" y1="47.639" x2="1.5" y2="47.639"/>
	<line class="st18" x1="77.493" y1="53.067" x2="4.214" y2="53.067"/>
	<line class="st18" x1="80.207" y1="15.07" x2="1.5" y2="15.07"/>
	<line class="st18" x1="77.493" y1="20.498" x2="4.214" y2="20.498"/>
</g>
</svg>
