<?xml version="1.0" encoding="utf-8"?>
<!-- Generator: Adobe Illustrator 18.1.1, SVG Export Plug-In . SVG Version: 6.00 Build 0)  -->
<!DOCTYPE svg PUBLIC "-//W3C//DTD SVG 1.1//EN" "http://www.w3.org/Graphics/SVG/1.1/DTD/svg11.dtd">
<svg version="1.1" id="Layer_1" xmlns="http://www.w3.org/2000/svg" xmlns:xlink="http://www.w3.org/1999/xlink" x="0px" y="0px"
	 viewBox="0 0 88.786 69.01" style="enable-background:new 0 0 88.786 69.01;" xml:space="preserve">
<style type="text/css">
	.st0{fill:none;stroke:#BCF171;stroke-width:3;stroke-linecap:round;stroke-linejoin:round;stroke-miterlimit:10;}
	.st1{fill:none;stroke:#BCF171;stroke-width:3.3188;stroke-linecap:round;stroke-linejoin:round;stroke-miterlimit:10;}
	.st2{fill:none;stroke:#BCF171;stroke-width:3.3188;stroke-miterlimit:10;}
	.st3{fill:none;stroke:#BCF171;stroke-width:3.3188;stroke-linecap:round;stroke-miterlimit:10;}
	.st4{fill:none;stroke:#BCF171;stroke-width:2.3869;stroke-linecap:round;stroke-linejoin:round;stroke-miterlimit:10;}
	.st5{fill:none;stroke:#BCF171;stroke-width:2.8271;stroke-linecap:round;stroke-linejoin:round;stroke-miterlimit:10;}
	.st6{fill:none;stroke:#BCF171;stroke-width:2.717;stroke-linecap:round;stroke-linejoin:round;stroke-miterlimit:10;}
	.st7{fill:none;stroke:#BCF171;stroke-width:3.5492;stroke-linecap:round;stroke-linejoin:round;stroke-miterlimit:10;}
	.st8{fill:#BCF171;}
	.st9{fill:none;stroke:#2F2933;stroke-width:3;stroke-linecap:round;stroke-linejoin:round;stroke-miterlimit:10;}
	.st10{fill:none;stroke:#2F2933;stroke-width:3.3188;stroke-linecap:round;stroke-linejoin:round;stroke-miterlimit:10;}
	.st11{fill:none;stroke:#2F2933;stroke-width:3.3188;stroke-miterlimit:10;}
	.st12{fill:none;stroke:#2F2933;stroke-width:3.3188;stroke-linecap:round;stroke-miterlimit:10;}
	.st13{fill:none;stroke:#2F2933;stroke-width:2.3869;stroke-linecap:round;stroke-linejoin:round;stroke-miterlimit:10;}
	.st14{fill:none;stroke:#2F2933;stroke-width:2.8271;stroke-linecap:round;stroke-linejoin:round;stroke-miterlimit:10;}
	.st15{fill:none;stroke:#2F2933;stroke-width:2.717;stroke-linecap:round;stroke-linejoin:round;stroke-miterlimit:10;}
	.st16{fill:none;stroke:#2F2933;stroke-width:3.5492;stroke-linecap:round;stroke-linejoin:round;stroke-miterlimit:10;}
	.st17{fill:#2F2933;}
	.st18{fill:none;stroke:#FFFFFF;stroke-width:3;stroke-linecap:round;stroke-linejoin:round;stroke-miterlimit:10;}
	.st19{fill:none;stroke:#FFFFFF;stroke-width:3.3188;stroke-linecap:round;stroke-linejoin:round;stroke-miterlimit:10;}
	.st20{fill:none;stroke:#FFFFFF;stroke-width:3.3188;stroke-miterlimit:10;}
	.st21{fill:none;stroke:#FFFFFF;stroke-width:3.3188;stroke-linecap:round;stroke-miterlimit:10;}
	.st22{fill:none;stroke:#FFFFFF;stroke-width:2.3869;stroke-linecap:round;stroke-linejoin:round;stroke-miterlimit:10;}
	.st23{fill:none;stroke:#FFFFFF;stroke-width:2.8271;stroke-linecap:round;stroke-linejoin:round;stroke-miterlimit:10;}
	.st24{fill:none;stroke:#FFFFFF;stroke-width:2.717;stroke-linecap:round;stroke-linejoin:round;stroke-miterlimit:10;}
	.st25{fill:none;stroke:#FFFFFF;stroke-width:3.5492;stroke-linecap:round;stroke-linejoin:round;stroke-miterlimit:10;}
	.st26{fill:#FFFFFF;}
	.st27{fill:none;stroke:#2F2933;stroke-width:4.75;stroke-miterlimit:10;}
	.st28{fill:none;stroke:#BCF171;stroke-width:4.75;stroke-miterlimit:10;}
	.st29{fill:none;stroke:#FFFFFF;stroke-width:4.75;stroke-miterlimit:10;}
	.st30{fill:none;stroke:#2F2933;stroke-width:3;stroke-miterlimit:10;}
	.st31{fill:none;stroke:#BCF171;stroke-width:3;stroke-miterlimit:10;}
	.st32{fill:none;stroke:#FFFFFF;stroke-width:3;stroke-miterlimit:10;}
</style>
<g>
	<path class="st26" d="M18.086,32.838c-3.632,0-6.577,2.945-6.577,6.577s2.945,6.577,6.577,6.577s6.577-2.945,6.577-6.577
		S21.718,32.838,18.086,32.838z M18.086,42.703c-1.813,0-3.288-1.476-3.288-3.288s1.475-3.288,3.288-3.288
		c1.813,0,3.288,1.476,3.288,3.288S19.899,42.703,18.086,42.703z"/>
	<path class="st26" d="M70.7,32.838c-3.632,0-6.577,2.945-6.577,6.577s2.945,6.577,6.577,6.577s6.577-2.945,6.577-6.577
		S74.332,32.838,70.7,32.838z M70.7,42.703c-1.813,0-3.288-1.476-3.288-3.288s1.475-3.288,3.288-3.288
		c1.813,0,3.288,1.476,3.288,3.288S72.513,42.703,70.7,42.703z"/>
	<path class="st26" d="M77.49,19.685l-2.81-13.154C73.457,2.219,70.308,0,65.768,0H23.019c-4.541,0-7.237,2.367-8.524,6.655
		l-2.982,13.03H0v3.288h10.759l-0.038,0.169c-5.077,0.403-9.077,4.644-9.077,9.826v22.889h4.933v4.933
		c0,4.541,3.68,8.221,8.221,8.221s8.221-3.68,8.221-8.221v-4.933h42.749v4.933c0,4.541,3.68,8.221,8.221,8.221
		c4.541,0,8.221-3.68,8.221-8.221v-4.933h4.933V32.967c0-5.126-3.91-9.336-8.91-9.817l-0.038-0.177h10.593v-3.288H77.49z
		 M17.673,7.501c0.923-2.99,2.479-4.212,5.345-4.212h42.749c3.086,0,4.907,1.285,5.721,4.044l3.37,15.77H14.104L17.673,7.501z
		 M19.73,60.789c0,2.72-2.213,4.933-4.933,4.933s-4.933-2.213-4.933-4.933v-4.933h9.865V60.789z M78.921,60.789
		c0,2.72-2.213,4.933-4.933,4.933c-2.72,0-4.933-2.213-4.933-4.933v-4.933h9.865V60.789z M83.854,32.967v19.601h-1.644H65.768
		H23.019H6.577H4.933V32.967c0-3.626,2.95-6.577,6.577-6.577h65.768C80.904,26.391,83.854,29.341,83.854,32.967z"/>
</g>
</svg>
