<?xml version="1.0" encoding="utf-8"?>
<!-- Generator: Adobe Illustrator 18.1.1, SVG Export Plug-In . SVG Version: 6.00 Build 0)  -->
<!DOCTYPE svg PUBLIC "-//W3C//DTD SVG 1.1//EN" "http://www.w3.org/Graphics/SVG/1.1/DTD/svg11.dtd">
<svg version="1.1" id="Layer_1" xmlns="http://www.w3.org/2000/svg" xmlns:xlink="http://www.w3.org/1999/xlink" x="0px" y="0px"
	 viewBox="0 0 85.182 85.182" style="enable-background:new 0 0 85.182 85.182;" xml:space="preserve">
<style type="text/css">
	.st0{fill:none;stroke:#BCF171;stroke-width:3;stroke-linecap:round;stroke-linejoin:round;stroke-miterlimit:10;}
	.st1{fill:none;stroke:#BCF171;stroke-width:3.3188;stroke-linecap:round;stroke-linejoin:round;stroke-miterlimit:10;}
	.st2{fill:none;stroke:#BCF171;stroke-width:3.3188;stroke-miterlimit:10;}
	.st3{fill:none;stroke:#BCF171;stroke-width:3.3188;stroke-linecap:round;stroke-miterlimit:10;}
	.st4{fill:none;stroke:#BCF171;stroke-width:2.3869;stroke-linecap:round;stroke-linejoin:round;stroke-miterlimit:10;}
	.st5{fill:none;stroke:#BCF171;stroke-width:2.8271;stroke-linecap:round;stroke-linejoin:round;stroke-miterlimit:10;}
	.st6{fill:none;stroke:#BCF171;stroke-width:2.717;stroke-linecap:round;stroke-linejoin:round;stroke-miterlimit:10;}
	.st7{fill:none;stroke:#BCF171;stroke-width:3.5492;stroke-linecap:round;stroke-linejoin:round;stroke-miterlimit:10;}
	.st8{fill:#BCF171;}
	.st9{fill:none;stroke:#2F2933;stroke-width:3;stroke-linecap:round;stroke-linejoin:round;stroke-miterlimit:10;}
	.st10{fill:none;stroke:#2F2933;stroke-width:3.3188;stroke-linecap:round;stroke-linejoin:round;stroke-miterlimit:10;}
	.st11{fill:none;stroke:#2F2933;stroke-width:3.3188;stroke-miterlimit:10;}
	.st12{fill:none;stroke:#2F2933;stroke-width:3.3188;stroke-linecap:round;stroke-miterlimit:10;}
	.st13{fill:none;stroke:#2F2933;stroke-width:2.3869;stroke-linecap:round;stroke-linejoin:round;stroke-miterlimit:10;}
	.st14{fill:none;stroke:#2F2933;stroke-width:2.8271;stroke-linecap:round;stroke-linejoin:round;stroke-miterlimit:10;}
	.st15{fill:none;stroke:#2F2933;stroke-width:2.717;stroke-linecap:round;stroke-linejoin:round;stroke-miterlimit:10;}
	.st16{fill:none;stroke:#2F2933;stroke-width:3.5492;stroke-linecap:round;stroke-linejoin:round;stroke-miterlimit:10;}
	.st17{fill:#2F2933;}
	.st18{fill:none;stroke:#FFFFFF;stroke-width:3;stroke-linecap:round;stroke-linejoin:round;stroke-miterlimit:10;}
	.st19{fill:none;stroke:#FFFFFF;stroke-width:3.3188;stroke-linecap:round;stroke-linejoin:round;stroke-miterlimit:10;}
	.st20{fill:none;stroke:#FFFFFF;stroke-width:3.3188;stroke-miterlimit:10;}
	.st21{fill:none;stroke:#FFFFFF;stroke-width:3.3188;stroke-linecap:round;stroke-miterlimit:10;}
	.st22{fill:none;stroke:#FFFFFF;stroke-width:2.3869;stroke-linecap:round;stroke-linejoin:round;stroke-miterlimit:10;}
	.st23{fill:none;stroke:#FFFFFF;stroke-width:2.8271;stroke-linecap:round;stroke-linejoin:round;stroke-miterlimit:10;}
	.st24{fill:none;stroke:#FFFFFF;stroke-width:2.717;stroke-linecap:round;stroke-linejoin:round;stroke-miterlimit:10;}
	.st25{fill:none;stroke:#FFFFFF;stroke-width:3.5492;stroke-linecap:round;stroke-linejoin:round;stroke-miterlimit:10;}
	.st26{fill:#FFFFFF;}
	.st27{fill:none;stroke:#2F2933;stroke-width:4.75;stroke-miterlimit:10;}
	.st28{fill:none;stroke:#BCF171;stroke-width:4.75;stroke-miterlimit:10;}
	.st29{fill:none;stroke:#FFFFFF;stroke-width:4.75;stroke-miterlimit:10;}
	.st30{fill:none;stroke:#2F2933;stroke-width:3;stroke-miterlimit:10;}
	.st31{fill:none;stroke:#BCF171;stroke-width:3;stroke-miterlimit:10;}
	.st32{fill:none;stroke:#FFFFFF;stroke-width:3;stroke-miterlimit:10;}
</style>
<g>
	<path class="st25" d="M17.547,27.176c-1.532,4.792-0.213,12.487,9.523,17.989c9.736,5.504,11.642,4.236,12.488,5.081
		c0.846,0.846-1.905,0.633-1.482-1.906c0.423-2.539-1.269-2.177-2.539-2.251c-1.272-0.076-1.695-2.617-1.272-4.097
		c0.425-1.484-2.116,1.905-4.021-1.27c-1.903-3.175,1.265-5.915,4.021-5.08c6.986,2.116,5.897-4.287,11.429-8.466
		c10.372-7.832-4.866-12.275-12.698-13.545c-7.83-1.27-18.732,1.905-16.138,4.868C19.451,21.462,17.919,26.009,17.547,27.176z"/>
	<path class="st25" d="M41.887,56.594c-0.636,4.868-5.291,0.636,0,5.502c5.289,4.868,6.56-5.287,5.924,5.717
		c-0.634,11.003-9.948,12.062-2.539,9.733c7.409-2.327,6.137-0.421,11.641-5.924c5.504-5.504,6.35-8.469,9.313-12.913
		c2.963-4.444-1.905-2.728-5.293-5.925c-3.386-3.199-8.889-10.371-13.334-5.716C43.156,51.726,41.887,56.594,41.887,56.594z"/>
	<path class="st25" d="M54.119,3.431c-0.184,2.728,1.204,9.857,4.845,13.311c3.641,3.454,15.275,6.546,15.639,10.909
		s5.272,7.639,3.456,11.821c-1.82,4.182-5.208,9.835-1.092,13.275c4.116,3.44,4.894,0.981,4.894,0.981"/>
	<circle class="st25" cx="42.591" cy="42.591" r="40.816"/>
</g>
</svg>
