<?xml version="1.0" encoding="utf-8"?>
<!-- Generator: Adobe Illustrator 18.1.1, SVG Export Plug-In . SVG Version: 6.00 Build 0)  -->
<!DOCTYPE svg PUBLIC "-//W3C//DTD SVG 1.1//EN" "http://www.w3.org/Graphics/SVG/1.1/DTD/svg11.dtd">
<svg version="1.1" id="Layer_1" xmlns="http://www.w3.org/2000/svg" xmlns:xlink="http://www.w3.org/1999/xlink" x="0px" y="0px"
	 viewBox="0 0 115.494 112.656" style="enable-background:new 0 0 115.494 112.656;" xml:space="preserve">
<style type="text/css">
	.st0{opacity:0.15;}
	.st1{fill:#2F2933;}
	.st2{fill:#FFFFFF;}
	.st3{fill:url(#SVGID_9_);}
	.st4{fill:#828F97;}
	.st5{opacity:0.8;}
	.st6{fill:url(#SVGID_10_);}
	.st7{fill:url(#SVGID_11_);}
	.st8{fill:url(#SVGID_12_);}
	.st9{opacity:0.8;fill:url(#SVGID_13_);}
	.st10{display:none;fill:none;}
	.st11{fill:#231F20;}
	.st12{fill:#CFC9B3;}
	.st13{fill:none;stroke:#FFFFFF;stroke-width:0.6733;stroke-miterlimit:10;}
	.st14{fill:#BCF171;}
	.st15{fill:#635E66;}
	.st16{fill:#44433C;}
	.st17{clip-path:url(#SVGID_15_);fill:#BCF171;}
	.st18{clip-path:url(#SVGID_17_);fill:#2F2933;}
	.st19{clip-path:url(#SVGID_19_);fill:#FFFFFF;}
	.st20{opacity:0.5;}
	.st21{opacity:0.25;}
	.st22{fill:url(#SVGID_20_);}
	
		.st23{fill:none;stroke:#FFFFFF;stroke-width:1.3467;stroke-linecap:round;stroke-linejoin:round;stroke-miterlimit:10;stroke-dasharray:0.0673,3.3666;}
	.st24{fill:none;stroke:#BCF171;stroke-width:0.6055;stroke-miterlimit:10;}
	.st25{fill:none;stroke:#FFFFFF;stroke-width:0.4793;stroke-miterlimit:10;}
	.st26{fill:none;stroke:#BCF171;stroke-width:4;stroke-miterlimit:10;}
	.st27{fill:#DAD8DA;}
	.st28{opacity:0.25;fill:#2F2933;}
	.st29{fill:#EEFBDB;}
	.st30{opacity:0.25;fill:#BCF171;}
	.st31{clip-path:url(#SVGID_22_);}
	.st32{fill:none;stroke:#BCF171;stroke-width:4.75;stroke-miterlimit:10;}
	.st33{fill:#BCF171;stroke:#BCF171;stroke-miterlimit:10;}
	.st34{fill:none;stroke:#BCF171;stroke-width:4.2955;stroke-linecap:round;stroke-linejoin:round;stroke-miterlimit:10;}
	.st35{fill-rule:evenodd;clip-rule:evenodd;fill:#BCF171;}
	.st36{fill:none;stroke:#2F2933;stroke-width:0.9426;stroke-miterlimit:10;}
	.st37{fill:none;stroke:#2F2933;stroke-width:1.1725;stroke-miterlimit:10;}
	.st38{fill:none;stroke:#2F2933;stroke-width:1.3694;stroke-miterlimit:10;}
	.st39{opacity:0.25;fill:#FFFFFF;}
	.st40{fill:none;stroke:#FFFFFF;stroke-width:4;stroke-linejoin:round;stroke-miterlimit:10;}
	.st41{fill:#D6CBC6;stroke:#FFFFFF;stroke-width:4;stroke-linecap:round;stroke-linejoin:round;stroke-miterlimit:10;}
	.st42{fill:none;stroke:#FFFFFF;stroke-width:4;stroke-linecap:round;stroke-linejoin:round;stroke-miterlimit:10;}
	.st43{fill:none;stroke:#FFFFFF;stroke-width:3.1378;stroke-linecap:round;stroke-linejoin:round;stroke-miterlimit:10;}
	.st44{fill:url(#SVGID_27_);}
</style>
<path class="st2" d="M99.02,50.683c-0.173-0.674-0.542-1.436-1.259-2.273l-0.87-1.016V26.056c0-1.017-0.825-1.841-1.841-1.841
	H77.049L62.247,6.924c-2.378-2.771-6.814-2.771-9.187,0L17.543,48.41c-1.63,1.906-1.505,3.445-1.194,4.325v8.736v1.995v42.503
	c0,1.017,0.825,1.841,1.841,1.841h23.865h32.069h23.371c1.017,0,1.841-0.825,1.841-1.841V65.461v-3.989v-9.82
	C99.336,51.287,99.202,50.966,99.02,50.683z M20.032,55.142c0.204,0.017,0.403,0.038,0.628,0.038h73.987
	c0.367,0,0.698-0.026,1.007-0.067v4.517H20.032V55.142z M93.209,27.897v1.86h-1.861c-0.882,0-1.597,0.714-1.597,1.597
	c0,0.88,0.714,1.594,1.597,1.594h1.861v2.249h-1.861c-0.882,0-1.597,0.714-1.597,1.594c0,0.882,0.714,1.597,1.597,1.597h1.861v4.704
	L80.202,27.897H93.209z M55.86,9.322c0.988-1.156,2.599-1.156,3.587,0l35.519,41.486c0.22,0.259,0.35,0.465,0.42,0.611
	c-0.156,0.041-0.398,0.079-0.738,0.079H20.66c-0.302,0-0.516-0.031-0.671-0.067c-0.005-0.031-0.014-0.062-0.019-0.094
	c0.077-0.139,0.187-0.314,0.374-0.53L55.86,9.322z M43.897,104.128v-2.762h2.762h23.016h2.609v2.762H43.897z M63.844,80.458h-2.762
	c-0.815,0-1.472,0.659-1.472,1.472c0,0.813,0.657,1.472,1.472,1.472h2.762v7.837H52.336V71.081h11.508V80.458z M50.495,94.922
	h15.191h2.148v2.762H48.5v-2.762H50.495z M95.654,104.128H75.966v-4.603c0-1.016-0.825-1.841-1.841-1.841h-2.609V93.08
	c0-1.016-0.825-1.841-1.841-1.841h-2.148V69.24c0-1.017-0.825-1.841-1.841-1.841H50.495c-1.016,0-1.841,0.825-1.841,1.841v21.999
	h-1.995c-1.016,0-1.841,0.825-1.841,1.841v4.603h-2.762c-1.016,0-1.841,0.825-1.841,1.841v4.603H20.032V63.466v-0.153h75.622v2.148
	V104.128z"/>
<path class="st2" d="M48.769,63.029H33.271c-0.815,0-1.472,0.659-1.472,1.472v17.185c0,0.813,0.657,1.472,1.472,1.472h15.497
	c0.815,0,1.472-0.659,1.472-1.472V64.501C50.241,63.689,49.584,63.029,48.769,63.029z M47.297,71.622h-4.805v-5.649h4.805V71.622z
	 M39.548,65.973v5.649h-4.805v-5.649H39.548z M34.743,74.566h4.805v5.649h-4.805V74.566z M42.492,80.215v-5.649h4.805v5.649H42.492z
	"/>
<path class="st2" d="M97.869,62.799H82.372c-0.813,0-1.472,0.659-1.472,1.472v17.185c0,0.813,0.659,1.472,1.472,1.472h15.497
	c0.813,0,1.472-0.659,1.472-1.472V64.271C99.341,63.458,98.682,62.799,97.869,62.799z M96.397,71.392h-4.805v-5.649h4.805V71.392z
	 M88.649,65.743v5.649h-4.805v-5.649H88.649z M83.844,74.336h4.805v5.586c0,0.022,0.012,0.041,0.012,0.062h-4.817V74.336z
	 M91.581,79.984c0-0.022,0.012-0.041,0.012-0.062v-5.586h4.805v5.649H91.581z"/>
<path class="st2" d="M98.771,13.291H87.589c-0.882,0-1.597,0.715-1.597,1.597c0,0.882,0.714,1.597,1.597,1.597h11.182
	c2.91,0,5.279-2.244,5.279-5.001c0-2.759-2.369-5.001-5.279-5.001h-7.499c-1.113,0-2.086-0.712-2.086-1.52
	c0-0.81,0.973-1.52,2.086-1.52h11.182c0.882,0,1.597-0.714,1.597-1.597c0-0.882-0.714-1.597-1.597-1.597H91.271
	c-2.911,0-5.279,2.115-5.279,4.714c0,2.596,2.369,4.709,5.279,4.709h7.499c1.132,0,2.086,0.83,2.086,1.813
	C100.857,12.461,99.902,13.291,98.771,13.291z"/>
</svg>
