<?xml version="1.0" encoding="utf-8"?>
<!-- Generator: Adobe Illustrator 18.1.1, SVG Export Plug-In . SVG Version: 6.00 Build 0)  -->
<!DOCTYPE svg PUBLIC "-//W3C//DTD SVG 1.1//EN" "http://www.w3.org/Graphics/SVG/1.1/DTD/svg11.dtd">
<svg version="1.1" id="Layer_1" xmlns="http://www.w3.org/2000/svg" xmlns:xlink="http://www.w3.org/1999/xlink" x="0px" y="0px"
	 viewBox="0 0 832.996 195.165" style="enable-background:new 0 0 832.996 195.165;" xml:space="preserve">
<style type="text/css">
	.st0{fill:#FFFFFF;}
	.st1{fill-rule:evenodd;clip-rule:evenodd;fill:#FFFFFF;}
	.st2{fill-rule:evenodd;clip-rule:evenodd;}
	.st3{fill:none;stroke:#000000;stroke-width:10;stroke-miterlimit:10;}
	.st4{fill:#231F20;}
</style>
<g>
	<g>
		<g>
			<path class="st4" d="M9.542,54.854c0.698,2.4,1.842,4.453,3.433,6.154c1.589,1.702,3.704,2.786,6.342,3.251
				c0.154,0,0.309,0.021,0.465,0.059c0.155,0.038,0.309,0.096,0.465,0.173c0.466,0.078,0.949,0.156,1.455,0.232
				c0.504,0.078,1.027,0.116,1.571,0.116c0.232,0,0.503,0,0.814,0c0.309,0,0.582-0.038,0.814-0.116
				c1.551-0.154,3.044-0.58,4.48-1.276c1.435-0.696,2.578-1.664,3.433-2.903c0.387-0.697,0.736-1.451,1.047-2.264
				c0.309-0.813,0.504-1.646,0.582-2.497c0.076-0.232,0.116-0.445,0.116-0.638c0-0.193,0-0.405,0-0.639
				c0-0.387-0.02-0.754-0.058-1.104c-0.04-0.347-0.098-0.715-0.174-1.104c-0.079-0.618-0.195-1.2-0.349-1.742
				c-0.157-0.541-0.389-1.043-0.698-1.509c-0.776-1.314-1.979-2.475-3.607-3.481c-1.629-1.008-3.375-1.896-5.236-2.671
				c-1.242-0.618-2.484-1.181-3.724-1.684c-1.242-0.502-2.328-1.026-3.258-1.567c-0.078,0-0.156-0.019-0.233-0.059
				c-0.078-0.038-0.156-0.097-0.232-0.175c-3.336-1.779-6.458-3.947-9.368-6.502c-2.909-2.553-4.674-5.844-5.294-9.869
				c0-0.232-0.02-0.483-0.058-0.756c-0.04-0.271-0.058-0.523-0.058-0.757c-0.078-0.232-0.137-0.483-0.175-0.756
				c-0.04-0.271-0.058-0.523-0.058-0.757c0-0.465,0.018-0.949,0.058-1.454c0.038-0.504,0.097-1.027,0.175-1.571
				c0.309-1.861,0.873-3.684,1.687-5.469C4.712,9.736,5.74,8.186,6.982,6.865c1.784-2.016,4.073-3.606,6.865-4.771
				C16.64,0.931,19.509,0.232,22.458,0c0.233,0,0.484,0,0.757,0c0.271,0,0.523,0,0.756,0c0.309,0,0.62,0,0.931,0
				c0.309,0,0.62,0.04,0.931,0.116c3.878,0.233,7.563,1.339,11.055,3.316c3.491,1.979,5.973,4.869,7.447,8.67l-8.96,4.771
				c-1.32-2.017-2.851-3.626-4.596-4.829c-1.746-1.202-3.822-1.804-6.226-1.804h-0.349c-2.716,0.078-5.003,1.009-6.865,2.793
				c-1.862,1.785-2.909,3.764-3.142,5.935c0,0.156,0,0.291,0,0.407s0,0.215,0,0.291c0,0.232,0.018,0.505,0.058,0.814
				c0.038,0.311,0.097,0.582,0.175,0.814c0.154,1.009,0.542,1.979,1.164,2.909c0.62,0.931,1.396,1.745,2.327,2.443
				c1.551,1.393,3.276,2.573,5.178,3.54c1.9,0.968,3.82,1.839,5.76,2.613c0.154,0.076,0.271,0.134,0.349,0.173
				c0.076,0.04,0.192,0.098,0.349,0.174c1.473,0.62,2.927,1.259,4.364,1.917c1.434,0.658,2.772,1.41,4.014,2.262
				c2.482,1.703,4.44,3.793,5.876,6.269c1.435,2.477,2.308,5.031,2.618,7.662c0.077,0.466,0.135,0.93,0.175,1.393
				c0.038,0.466,0.058,0.93,0.058,1.394c0,4.178-1.184,8.125-3.549,11.84c-2.367,3.715-5.722,6.346-10.065,7.893
				c-0.776,0.232-1.591,0.466-2.443,0.698c-0.855,0.232-1.708,0.388-2.56,0.466c-0.931,0.154-1.824,0.271-2.677,0.349
				c-0.854,0.076-1.669,0.116-2.443,0.116c-5.12,0-9.853-1.354-14.197-4.063C4.382,68.632,1.473,64.568,0,59.149L9.542,54.854z"/>
			<path class="st4" d="M65.976,73.775H55.038V1.746h17.92c0.931,0,1.9,0.02,2.909,0.058c1.007,0.04,2.016,0.059,3.025,0.059
				c2.715,0.232,5.353,0.756,7.913,1.57c2.56,0.814,4.731,2.27,6.516,4.364c1.396,1.629,2.462,3.53,3.2,5.701
				c0.736,2.173,1.182,4.384,1.338,6.633c0,0.233,0,0.447,0,0.641c0,0.194,0,0.369,0,0.523c0,1.32-0.098,2.639-0.291,3.956
				c-0.195,1.32-0.486,2.601-0.873,3.841c-1.785,5.585-4.907,9.058-9.367,10.414c-4.462,1.358-9.213,2.036-14.255,2.036
				c-0.543,0-1.125-0.018-1.745-0.058c-0.622-0.038-1.204-0.059-1.746-0.059c-0.622,0-1.242-0.018-1.862-0.058
				c-0.622-0.038-1.204-0.059-1.746-0.059V73.775z M66.675,31.884c0.387,0,0.756,0.021,1.105,0.059
				C68.129,31.982,68.496,32,68.885,32c0.465,0,0.891,0.021,1.28,0.059c0.387,0.04,0.814,0.059,1.28,0.059s0.949,0,1.455,0
				c0.503,0,0.989-0.038,1.455-0.117c2.792-0.154,5.371-0.853,7.738-2.094c2.365-1.24,3.666-3.529,3.898-6.866v-0.931
				c0-4.111-1.378-6.808-4.131-8.087c-2.754-1.28-5.8-1.997-9.135-2.153c-0.389,0-0.796,0-1.222,0c-0.427,0-0.834,0-1.222,0h-3.607
				V31.884z"/>
			<path class="st4" d="M103.189,1.746h11.637v61.44h26.182v10.589h-37.818V1.746z"/>
			<path class="st4" d="M149.35,1.746h11.753v72.029H149.35V1.746z"/>
			<path class="st4" d="M199.994,73.775h-11.753V11.869h-19.083V1.746h49.804v10.123h-18.967V73.775z"/>
		</g>
	</g>
	<g>
		<path class="st4" d="M330.897,131.804c-3.647-1.435-7.487-2.152-11.52-2.152c-0.931,0-1.882,0.04-2.851,0.116
			c-0.971,0.078-1.998,0.194-3.083,0.35c-6.517,1.163-11.541,4.247-15.069,9.251c-3.531,5.003-5.411,10.338-5.644,16
			c0,0.232,0,0.447,0,0.64c0,0.194,0,0.407,0,0.641c0,0.232,0,0.465,0,0.697c0,0.233,0,0.466,0,0.698
			c0.309,5.276,1.997,10.24,5.062,14.896c3.064,4.654,7.466,7.836,13.208,9.541c0.62,0.157,1.24,0.291,1.862,0.408
			c0.62,0.116,1.28,0.252,1.978,0.407c0.62,0.078,1.24,0.156,1.862,0.232c0.62,0.078,1.24,0.116,1.862,0.116
			c4.189,0,8.204-0.891,12.044-2.677c3.84-1.783,7.427-3.994,10.764-6.633v13.266c-2.327,1.553-4.791,2.813-7.389,3.782
			c-2.6,0.971-5.218,1.688-7.854,2.152c-1.242,0.155-2.484,0.291-3.724,0.407c-1.242,0.117-2.444,0.175-3.607,0.175
			c-9.233,0-17.649-2.985-25.251-8.96c-7.604-5.973-11.909-14.272-12.917-24.902c0-0.309,0-0.62,0-0.931c0-0.309,0-0.62,0-0.931
			c-0.078-0.232-0.117-0.504-0.117-0.814c0-0.31,0-0.62,0-0.931c0-9.542,3.142-17.921,9.426-25.136
			c6.284-7.214,14.313-11.325,24.087-12.334c0.233,0,0.465-0.019,0.698-0.059c0.233-0.038,0.425-0.058,0.582-0.058
			c0.698-0.077,1.376-0.117,2.036-0.117c0.658,0,1.26,0,1.804,0c4.111,0,8.029,0.641,11.753,1.921
			c3.724,1.279,7.407,3.083,11.055,5.41l-0.582,11.753C338.034,135.315,334.543,133.24,330.897,131.804z"/>
		<path class="st4" d="M407.366,188.066c-6.711,4.034-13.789,6.051-21.237,6.051c-0.622,0-1.222-0.02-1.803-0.058
			c-0.582-0.04-1.184-0.099-1.804-0.175c-2.484-0.232-4.927-0.68-7.331-1.338c-2.406-0.658-4.733-1.571-6.982-2.735
			c-6.362-3.412-11.346-8.146-14.953-14.196c-3.607-6.051-5.411-12.489-5.411-19.316c0-1.085,0.058-2.171,0.174-3.258
			c0.117-1.086,0.291-2.171,0.524-3.259c0.309-1.861,0.814-3.741,1.513-5.644c0.698-1.9,1.473-3.703,2.327-5.411
			c3.491-6.359,8.32-11.247,14.487-14.662c6.167-3.412,12.664-5.12,19.491-5.12c1.164,0,2.366,0.059,3.607,0.175
			c1.24,0.116,2.443,0.291,3.607,0.523c2.481,0.466,4.925,1.146,7.331,2.037c2.404,0.893,4.655,2.036,6.75,3.433
			c5.353,3.491,9.522,8.127,12.509,13.905c2.985,5.78,4.48,11.773,4.48,17.979c0,2.405-0.233,4.771-0.698,7.099
			c-0.465,2.327-1.125,4.616-1.979,6.865C418.945,178.332,414.075,184.033,407.366,188.066z M404.981,175.383
			c5.042-5.353,7.564-11.597,7.564-18.734c0-7.291-2.58-13.615-7.738-18.968c-5.16-5.353-11.386-8.029-18.677-8.029h-2.443
			c-6.828,0.698-12.491,3.782-16.989,9.251c-4.5,5.469-6.749,11.502-6.749,18.095c0,0.389,0.018,0.776,0.058,1.164
			c0.038,0.389,0.096,0.776,0.174,1.163c0,0.232,0.018,0.447,0.058,0.64c0.039,0.195,0.058,0.408,0.058,0.641
			c0.077,0.232,0.135,0.447,0.175,0.64c0.038,0.194,0.058,0.369,0.058,0.523c1.24,6.13,4.306,11.27,9.193,15.419
			c4.887,4.15,10.433,6.226,16.64,6.226C393.732,183.412,399.937,180.735,404.981,175.383z"/>
		<path class="st4" d="M433.953,120.459h11.637v61.44h26.181v10.589h-37.818V120.459z"/>
		<path class="st4" d="M481.102,120.459h11.637v61.44h26.182v10.589h-37.818V120.459z"/>
		<path class="st4" d="M528.67,120.459h40.146v10.123h-28.51v17.804h28.51v10.356h-28.51v23.157h28.51v10.589H528.67V120.459z"/>
		<path class="st4" d="M627.797,131.804c-3.646-1.435-7.487-2.152-11.52-2.152c-0.931,0-1.882,0.04-2.852,0.116
			c-0.971,0.078-1.998,0.194-3.083,0.35c-6.517,1.163-11.54,4.247-15.069,9.251c-3.531,5.003-5.411,10.338-5.644,16
			c0,0.232,0,0.447,0,0.64c0,0.194,0,0.407,0,0.641c0,0.232,0,0.465,0,0.697c0,0.233,0,0.466,0,0.698
			c0.309,5.276,1.996,10.24,5.062,14.896c3.063,4.654,7.466,7.836,13.207,9.541c0.62,0.157,1.24,0.291,1.862,0.408
			c0.62,0.116,1.28,0.252,1.979,0.407c0.62,0.078,1.239,0.156,1.861,0.232c0.62,0.078,1.24,0.116,1.862,0.116
			c4.188,0,8.203-0.891,12.043-2.677c3.841-1.783,7.428-3.994,10.765-6.633v13.266c-2.328,1.553-4.791,2.813-7.39,3.782
			c-2.6,0.971-5.218,1.688-7.854,2.152c-1.242,0.155-2.483,0.291-3.724,0.407c-1.242,0.117-2.443,0.175-3.607,0.175
			c-9.232,0-17.649-2.985-25.251-8.96c-7.604-5.973-11.909-14.272-12.917-24.902c0-0.309,0-0.62,0-0.931c0-0.309,0-0.62,0-0.931
			c-0.078-0.232-0.116-0.504-0.116-0.814c0-0.31,0-0.62,0-0.931c0-9.542,3.142-17.921,9.426-25.136
			c6.283-7.214,14.313-11.325,24.088-12.334c0.232,0,0.465-0.019,0.697-0.059c0.233-0.038,0.426-0.058,0.582-0.058
			c0.698-0.077,1.377-0.117,2.037-0.117c0.658,0,1.26,0,1.803,0c4.111,0,8.029,0.641,11.753,1.921
			c3.724,1.279,7.407,3.083,11.055,5.41l-0.581,11.753C634.934,135.315,631.443,133.24,627.797,131.804z"/>
		<path class="st4" d="M679.031,192.488h-11.753v-61.906h-19.084v-10.123h49.805v10.123h-18.968V192.488z"/>
		<path class="st4" d="M703.769,120.459h11.753v72.029h-11.753V120.459z"/>
		<path class="st4" d="M723.229,120.459h12.103l16.058,38.283c0.775,1.862,1.474,3.764,2.095,5.702
			c0.62,1.94,1.164,3.918,1.63,5.935c0.619-2.017,1.239-3.994,1.861-5.935c0.62-1.938,1.318-3.84,2.095-5.702l16.059-38.283h12.102
			l-32.116,74.706L723.229,120.459z"/>
		<path class="st4" d="M792.85,120.459h40.146v10.123h-28.51v17.804h28.51v10.356h-28.51v23.157h28.51v10.589H792.85V120.459z"/>
	</g>
	<g>
		<rect x="245.055" y="0" class="st4" width="9.362" height="192.488"/>
	</g>
</g>
</svg>
