<?xml version="1.0" encoding="utf-8"?>
<!-- Generator: Adobe Illustrator 18.1.1, SVG Export Plug-In . SVG Version: 6.00 Build 0)  -->
<!DOCTYPE svg PUBLIC "-//W3C//DTD SVG 1.1//EN" "http://www.w3.org/Graphics/SVG/1.1/DTD/svg11.dtd">
<svg version="1.1" id="Layer_1" xmlns="http://www.w3.org/2000/svg" xmlns:xlink="http://www.w3.org/1999/xlink" x="0px" y="0px"
	 viewBox="0 0 86.884 75.314" style="enable-background:new 0 0 86.884 75.314;" xml:space="preserve">
<style type="text/css">
	.st0{fill:none;stroke:#BCF171;stroke-width:3;stroke-linecap:round;stroke-linejoin:round;stroke-miterlimit:10;}
	.st1{fill:none;stroke:#BCF171;stroke-width:3.3188;stroke-linecap:round;stroke-linejoin:round;stroke-miterlimit:10;}
	.st2{fill:none;stroke:#BCF171;stroke-width:3.3188;stroke-miterlimit:10;}
	.st3{fill:none;stroke:#BCF171;stroke-width:3.3188;stroke-linecap:round;stroke-miterlimit:10;}
	.st4{fill:none;stroke:#BCF171;stroke-width:2.3869;stroke-linecap:round;stroke-linejoin:round;stroke-miterlimit:10;}
	.st5{fill:none;stroke:#BCF171;stroke-width:2.8271;stroke-linecap:round;stroke-linejoin:round;stroke-miterlimit:10;}
	.st6{fill:none;stroke:#BCF171;stroke-width:2.717;stroke-linecap:round;stroke-linejoin:round;stroke-miterlimit:10;}
	.st7{fill:none;stroke:#BCF171;stroke-width:3.5492;stroke-linecap:round;stroke-linejoin:round;stroke-miterlimit:10;}
	.st8{fill:#BCF171;}
	.st9{fill:none;stroke:#2F2933;stroke-width:3;stroke-linecap:round;stroke-linejoin:round;stroke-miterlimit:10;}
	.st10{fill:none;stroke:#2F2933;stroke-width:3.3188;stroke-linecap:round;stroke-linejoin:round;stroke-miterlimit:10;}
	.st11{fill:none;stroke:#2F2933;stroke-width:3.3188;stroke-miterlimit:10;}
	.st12{fill:none;stroke:#2F2933;stroke-width:3.3188;stroke-linecap:round;stroke-miterlimit:10;}
	.st13{fill:none;stroke:#2F2933;stroke-width:2.3869;stroke-linecap:round;stroke-linejoin:round;stroke-miterlimit:10;}
	.st14{fill:none;stroke:#2F2933;stroke-width:2.8271;stroke-linecap:round;stroke-linejoin:round;stroke-miterlimit:10;}
	.st15{fill:none;stroke:#2F2933;stroke-width:2.717;stroke-linecap:round;stroke-linejoin:round;stroke-miterlimit:10;}
	.st16{fill:none;stroke:#2F2933;stroke-width:3.5492;stroke-linecap:round;stroke-linejoin:round;stroke-miterlimit:10;}
	.st17{fill:#2F2933;}
	.st18{fill:none;stroke:#FFFFFF;stroke-width:3;stroke-linecap:round;stroke-linejoin:round;stroke-miterlimit:10;}
	.st19{fill:none;stroke:#FFFFFF;stroke-width:3.3188;stroke-linecap:round;stroke-linejoin:round;stroke-miterlimit:10;}
	.st20{fill:none;stroke:#FFFFFF;stroke-width:3.3188;stroke-miterlimit:10;}
	.st21{fill:none;stroke:#FFFFFF;stroke-width:3.3188;stroke-linecap:round;stroke-miterlimit:10;}
	.st22{fill:none;stroke:#FFFFFF;stroke-width:2.3869;stroke-linecap:round;stroke-linejoin:round;stroke-miterlimit:10;}
	.st23{fill:none;stroke:#FFFFFF;stroke-width:2.8271;stroke-linecap:round;stroke-linejoin:round;stroke-miterlimit:10;}
	.st24{fill:none;stroke:#FFFFFF;stroke-width:2.717;stroke-linecap:round;stroke-linejoin:round;stroke-miterlimit:10;}
	.st25{fill:none;stroke:#FFFFFF;stroke-width:3.5492;stroke-linecap:round;stroke-linejoin:round;stroke-miterlimit:10;}
	.st26{fill:#FFFFFF;}
	.st27{fill:none;stroke:#2F2933;stroke-width:4.75;stroke-miterlimit:10;}
	.st28{fill:none;stroke:#BCF171;stroke-width:4.75;stroke-miterlimit:10;}
	.st29{fill:none;stroke:#FFFFFF;stroke-width:4.75;stroke-miterlimit:10;}
	.st30{fill:none;stroke:#2F2933;stroke-width:3;stroke-miterlimit:10;}
	.st31{fill:none;stroke:#BCF171;stroke-width:3;stroke-miterlimit:10;}
	.st32{fill:none;stroke:#FFFFFF;stroke-width:3;stroke-miterlimit:10;}
</style>
<g>
	<polyline class="st32" points="70.922,47.781 85.384,47.781 85.384,1.5 1.5,1.5 1.5,47.781 19.006,47.781 	"/>
	<path class="st32" d="M70.922,41.996h2.893c0-3.195,2.59-5.785,5.785-5.785V13.07c-3.195,0-5.785-2.59-5.785-5.785H13.07
		c0,3.195-2.59,5.785-5.785,5.785v23.141c3.195,0,5.785,2.59,5.785,5.785h10.134"/>
	<path class="st32" d="M55.697,30.445c0.484-1.817,0.762-3.765,0.762-5.804c0-9.585-5.828-17.355-13.017-17.355
		s-13.017,7.77-13.017,17.355c0,6.08,2.349,11.422,5.899,14.521"/>
	<circle class="st32" cx="68.029" cy="24.64" r="2.893"/>
	<ellipse class="st32" cx="55.013" cy="40.55" rx="10.124" ry="4.339"/>
	<path class="st32" d="M44.889,40.55v5.785c0,2.396,4.533,4.339,10.124,4.339s10.124-1.943,10.124-4.339V40.55"/>
	<path class="st32" d="M44.889,46.335v5.785c0,2.396,4.533,4.339,10.124,4.339s10.124-1.943,10.124-4.339v-5.785"/>
	<path class="st32" d="M44.889,52.12v5.785c0,2.396,4.533,4.339,10.124,4.339s10.124-1.943,10.124-4.339V52.12"/>
	<path class="st32" d="M44.889,57.905v5.785c0,2.396,4.533,4.339,10.124,4.339s10.124-1.943,10.124-4.339v-5.785"/>
	<ellipse class="st32" cx="34.765" cy="49.227" rx="10.124" ry="4.339"/>
	<path class="st32" d="M24.641,49.227v5.785c0,2.396,4.533,4.339,10.124,4.339s10.124-1.943,10.124-4.339v-5.785"/>
	<path class="st32" d="M24.641,55.013v5.785c0,2.396,4.533,4.339,10.124,4.339s10.124-1.943,10.124-4.339v-5.785"/>
	<path class="st32" d="M24.641,60.798v5.785c0,2.396,4.533,4.339,10.124,4.339s10.124-1.943,10.124-4.339v-5.785"/>
	<path class="st32" d="M44.889,63.69v5.785c0,2.396,4.533,4.339,10.124,4.339s10.124-1.943,10.124-4.339V63.69"/>
	<ellipse class="st32" cx="75.26" cy="57.905" rx="10.124" ry="4.339"/>
	<path class="st32" d="M65.136,57.905v5.785c0,2.396,4.533,4.339,10.124,4.339c5.591,0,10.124-1.943,10.124-4.339v-5.785"/>
	<circle class="st32" cx="18.855" cy="24.64" r="2.893"/>
	<path class="st32" d="M46.699,31.745c0-0.088,0.003-0.167,0.003-0.256c0-1.036,1.246-2.283,1.314-3.737
		c0.414-0.86,0.652-1.716,0.652-2.378c0-0.435-0.107-0.72-0.294-0.909c0.102-0.541,0.188-1.114,0.294-1.704
		c0.427-2.37-0.401-4.079-2.483-4.818c-0.751-0.267-3.868-0.806-5.029-1.931c-0.42-0.407-0.132,1.886-0.513,2.057
		c-2.04,0.917-2.849,2.344-2.426,4.693c0.106,0.59,0.193,1.162,0.294,1.704c-0.188,0.189-0.294,0.474-0.294,0.909
		c0,0.662,0.237,1.518,0.652,2.378c0.068,1.454,1.314,2.629,1.314,3.737c-0.002,0.451-0.002,0.885,0.015,1.294
		c0.016,0.376-0.252,0.695-0.623,0.761c-2.351,0.417-4.308,1.908-5.583,3.01c0.704,0.993,1.503,1.859,2.364,2.61"/>
</g>
</svg>
