<?xml version="1.0" encoding="utf-8"?>
<!-- Generator: Adobe Illustrator 18.1.1, SVG Export Plug-In . SVG Version: 6.00 Build 0)  -->
<!DOCTYPE svg PUBLIC "-//W3C//DTD SVG 1.1//EN" "http://www.w3.org/Graphics/SVG/1.1/DTD/svg11.dtd">
<svg version="1.1" id="Layer_1" xmlns="http://www.w3.org/2000/svg" xmlns:xlink="http://www.w3.org/1999/xlink" x="0px" y="0px"
	 viewBox="-25 -50 888 888" xml:space="preserve">
<style type="text/css">
	.st0{fill:#FFFFFF;}
	.st1{fill-rule:evenodd;clip-rule:evenodd;fill:#FFFFFF;}
	.st2{fill-rule:evenodd;clip-rule:evenodd;}
	.st3{fill:none;stroke:#000000;stroke-width:10;stroke-miterlimit:10;}
	.st4{fill:#231F20;}
</style>
<g>
	<g>
		<g>
			<path class="st0" d="M9.542,54.854c0.698,2.4,1.842,4.453,3.433,6.154c1.589,1.702,3.704,2.786,6.342,3.251
				c0.154,0,0.309,0.021,0.465,0.059c0.155,0.038,0.309,0.096,0.465,0.173c0.466,0.078,0.949,0.156,1.455,0.232
				c0.504,0.078,1.027,0.116,1.571,0.116c0.232,0,0.503,0,0.814,0c0.309,0,0.582-0.038,0.814-0.116
				c1.551-0.154,3.044-0.58,4.48-1.276c1.435-0.696,2.578-1.664,3.433-2.903c0.387-0.697,0.736-1.451,1.047-2.264
				c0.309-0.813,0.504-1.646,0.582-2.497c0.076-0.232,0.116-0.445,0.116-0.638c0-0.193,0-0.405,0-0.639
				c0-0.387-0.02-0.754-0.058-1.104c-0.04-0.347-0.098-0.715-0.174-1.104c-0.079-0.618-0.195-1.2-0.349-1.742
				c-0.157-0.541-0.389-1.043-0.698-1.509c-0.776-1.314-1.979-2.475-3.607-3.481c-1.629-1.008-3.375-1.896-5.236-2.671
				c-1.242-0.618-2.484-1.181-3.724-1.684c-1.242-0.502-2.328-1.026-3.258-1.567c-0.078,0-0.156-0.019-0.233-0.059
				c-0.078-0.038-0.156-0.097-0.232-0.175c-3.336-1.779-6.458-3.947-9.368-6.502c-2.909-2.553-4.674-5.844-5.294-9.869
				c0-0.232-0.02-0.483-0.058-0.756c-0.04-0.271-0.058-0.523-0.058-0.757c-0.078-0.232-0.137-0.483-0.175-0.756
				c-0.04-0.271-0.058-0.523-0.058-0.757c0-0.465,0.018-0.949,0.058-1.454c0.038-0.504,0.097-1.027,0.175-1.571
				c0.309-1.861,0.873-3.684,1.687-5.469C4.712,9.736,5.74,8.186,6.982,6.865c1.784-2.016,4.073-3.606,6.865-4.771
				C16.64,0.931,19.509,0.232,22.458,0c0.233,0,0.484,0,0.757,0c0.271,0,0.523,0,0.756,0c0.309,0,0.62,0,0.931,0
				c0.309,0,0.62,0.04,0.931,0.116c3.878,0.233,7.563,1.339,11.055,3.316c3.491,1.979,5.973,4.869,7.447,8.67l-8.96,4.771
				c-1.32-2.017-2.851-3.626-4.596-4.829c-1.746-1.202-3.822-1.804-6.226-1.804h-0.349c-2.716,0.078-5.003,1.009-6.865,2.793
				c-1.862,1.785-2.909,3.764-3.142,5.935c0,0.156,0,0.291,0,0.407s0,0.215,0,0.291c0,0.232,0.018,0.505,0.058,0.814
				c0.038,0.311,0.097,0.582,0.175,0.814c0.154,1.009,0.542,1.979,1.164,2.909c0.62,0.931,1.396,1.745,2.327,2.443
				c1.551,1.393,3.276,2.573,5.178,3.54c1.9,0.968,3.82,1.839,5.76,2.613c0.154,0.076,0.271,0.134,0.349,0.173
				c0.076,0.04,0.192,0.098,0.349,0.174c1.473,0.62,2.927,1.259,4.364,1.917c1.434,0.658,2.772,1.41,4.014,2.262
				c2.482,1.703,4.44,3.793,5.876,6.269c1.435,2.477,2.308,5.031,2.618,7.662c0.077,0.466,0.135,0.93,0.175,1.393
				c0.038,0.466,0.058,0.93,0.058,1.394c0,4.178-1.184,8.125-3.549,11.84c-2.367,3.715-5.722,6.346-10.065,7.893
				c-0.776,0.232-1.591,0.466-2.443,0.698c-0.855,0.232-1.708,0.388-2.56,0.466c-0.931,0.154-1.824,0.271-2.677,0.349
				c-0.854,0.076-1.669,0.116-2.443,0.116c-5.12,0-9.853-1.354-14.197-4.063C4.382,68.632,1.473,64.568,0,59.149L9.542,54.854z"/>
			<path class="st0" d="M65.976,73.775H55.038V1.746h17.92c0.931,0,1.9,0.02,2.909,0.058c1.007,0.04,2.016,0.059,3.025,0.059
				c2.715,0.232,5.353,0.756,7.913,1.57c2.56,0.814,4.731,2.27,6.516,4.364c1.396,1.629,2.462,3.53,3.2,5.701
				c0.736,2.173,1.182,4.384,1.338,6.633c0,0.233,0,0.447,0,0.641c0,0.194,0,0.369,0,0.523c0,1.32-0.098,2.639-0.291,3.956
				c-0.195,1.32-0.486,2.601-0.873,3.841c-1.785,5.585-4.907,9.058-9.367,10.414c-4.462,1.358-9.213,2.036-14.255,2.036
				c-0.543,0-1.125-0.018-1.745-0.058c-0.622-0.038-1.204-0.059-1.746-0.059c-0.622,0-1.242-0.018-1.862-0.058
				c-0.622-0.038-1.204-0.059-1.746-0.059V73.775z M66.675,31.884c0.387,0,0.756,0.021,1.105,0.059
				C68.129,31.982,68.496,32,68.885,32c0.465,0,0.891,0.021,1.28,0.059c0.387,0.04,0.814,0.059,1.28,0.059s0.949,0,1.455,0
				c0.503,0,0.989-0.038,1.455-0.117c2.792-0.154,5.371-0.853,7.738-2.094c2.365-1.24,3.666-3.529,3.898-6.866v-0.931
				c0-4.111-1.378-6.808-4.131-8.087c-2.754-1.28-5.8-1.997-9.135-2.153c-0.389,0-0.796,0-1.222,0c-0.427,0-0.834,0-1.222,0h-3.607
				V31.884z"/>
			<path class="st0" d="M103.189,1.746h11.637v61.44h26.182v10.589h-37.818V1.746z"/>
			<path class="st0" d="M149.35,1.746h11.753v72.029H149.35V1.746z"/>
			<path class="st0" d="M199.994,73.775h-11.753V11.869h-19.083V1.746h49.804v10.123h-18.967V73.775z"/>
		</g>
	</g>
	<g>

	</g>
	<g>
		<rect x="245.055" y="0" class="st0" width="9.362" height="96.244"/>
	</g>
</g>
</svg>
