<?xml version="1.0" encoding="utf-8"?>
<!-- Generator: Adobe Illustrator 18.1.1, SVG Export Plug-In . SVG Version: 6.00 Build 0)  -->
<!DOCTYPE svg PUBLIC "-//W3C//DTD SVG 1.1//EN" "http://www.w3.org/Graphics/SVG/1.1/DTD/svg11.dtd">
<svg version="1.1" id="Layer_1" xmlns="http://www.w3.org/2000/svg" xmlns:xlink="http://www.w3.org/1999/xlink" x="0px" y="0px"
	 viewBox="0 0 308.002 76.368" style="enable-background:new 0 0 308.002 76.368;" xml:space="preserve">
<style type="text/css">
	.st0{fill-rule:evenodd;clip-rule:evenodd;}
	.st1{fill:#231F20;}
	.st2{fill:#FFFFFF;}
</style>
<g>
	<g>
		<path class="st1" d="M18.109,4.557l-1.47,1.207c-1.603-2.555-3.793-3.832-6.572-3.832c-1.134,0-2.167,0.278-3.102,0.835
			C6.031,3.323,5.296,4.077,4.761,5.028C4.226,5.98,3.958,7.013,3.958,8.126c0,1.49,0.504,2.65,1.512,3.479
			c1.008,0.83,2.453,1.688,4.335,2.577l6.194,3.234c2.463,1.553,3.695,3.702,3.695,6.445c0,1.742-0.476,3.335-1.428,4.776
			c-0.952,1.442-2.208,2.576-3.769,3.401c-1.561,0.826-3.213,1.239-4.955,1.239c-2.212,0-4.163-0.628-5.853-1.885
			C2,30.139,0.77,28.443,0,26.309L1.806,25.5c0.735,1.819,1.757,3.249,3.065,4.288c1.309,1.04,2.897,1.56,4.766,1.56
			c1.407,0,2.723-0.34,3.947-1.019s2.205-1.604,2.939-2.776c0.735-1.173,1.102-2.459,1.102-3.858c0-1.113-0.318-2.071-0.955-2.877
			c-0.637-0.805-1.358-1.444-2.163-1.921c-0.805-0.476-1.942-1.07-3.412-1.784l-5.848-3.098C3.009,12.63,1.89,10.694,1.89,8.21
			c0-1.582,0.354-2.999,1.061-4.252C3.657,2.705,4.642,1.732,5.905,1.04C7.168,0.347,8.598,0,10.193,0
			c1.638,0,3.172,0.409,4.604,1.229S17.332,3.156,18.109,4.557z"/>
		<path class="st1" d="M24.849,17.458v15.391h-2.058V0.431h5.722c1.54,0,2.864,0.121,3.973,0.362s2.119,0.751,3.029,1.527
			c1.953,1.651,2.929,3.874,2.929,6.666c0,1.225-0.232,2.415-0.698,3.569c-0.466,1.155-1.136,2.1-2.01,2.835
			c-1.589,1.379-3.997,2.067-7.223,2.067H24.849z M24.849,15.517h3.748c1.204,0,2.258-0.119,3.165-0.357
			c0.906-0.237,1.741-0.707,2.504-1.406c1.406-1.274,2.11-2.891,2.11-4.851c0-1.057-0.21-2.051-0.63-2.981s-1.025-1.687-1.816-2.268
			c-0.721-0.553-1.526-0.906-2.415-1.061c-0.889-0.153-1.977-0.23-3.265-0.23h-3.401V15.517z"/>
		<path class="st1" d="M43.916,0.431v30.486h8.262v1.932H41.858V0.431H43.916z"/>
		<path class="st1" d="M57.221,0.431v32.418h-2.058V0.431H57.221z"/>
		<path class="st1" d="M70.64,2.362v30.486h-2.068V2.362h-8.377V0.431h18.833v1.932H70.64z"/>
	</g>
	<g>
		<path class="st1" d="M125.074,46.659v2.834c-1.246-1.525-2.87-2.759-4.871-3.7c-2.002-0.941-4.003-1.412-6.005-1.412
			c-1.988,0-3.876,0.397-5.664,1.191c-1.788,0.795-3.366,1.89-4.734,3.286c-1.369,1.396-2.436,2.999-3.202,4.809
			c-0.766,1.809-1.149,3.687-1.149,5.632c0,1.868,0.385,3.673,1.155,5.412c0.77,1.739,1.833,3.276,3.191,4.613
			c1.414,1.337,3.038,2.417,4.871,3.239s3.678,1.233,5.533,1.233c1.252,0,2.572-0.212,3.958-0.636
			c1.386-0.423,2.691-1.013,3.916-1.769c1.225-0.756,2.226-1.603,3.003-2.54v2.834c-3.241,2.694-6.838,4.042-10.792,4.042
			c-2.954,0-5.732-0.751-8.336-2.252s-4.682-3.529-6.235-6.084s-2.331-5.309-2.331-8.262c0-3.003,0.768-5.784,2.305-8.346
			c1.536-2.562,3.606-4.592,6.209-6.089c2.604-1.498,5.414-2.247,8.43-2.247c1.302,0,2.591,0.163,3.868,0.488
			s2.502,0.804,3.674,1.433C123.039,45.001,124.108,45.764,125.074,46.659z"/>
		<path class="st1" d="M143.551,42.449c2.981,0,5.765,0.749,8.351,2.247c2.586,1.497,4.644,3.527,6.173,6.089
			c1.529,2.562,2.293,5.329,2.293,8.304s-0.765,5.741-2.293,8.299c-1.529,2.558-3.587,4.588-6.173,6.089
			c-2.586,1.501-5.37,2.252-8.351,2.252s-5.766-0.751-8.352-2.252s-4.644-3.531-6.173-6.089s-2.294-5.324-2.294-8.299
			c0-2.232,0.438-4.36,1.313-6.383s2.096-3.808,3.664-5.354c1.567-1.547,3.371-2.751,5.412-3.611
			C139.161,42.88,141.304,42.449,143.551,42.449z M143.551,44.381c-2.639,0-5.09,0.665-7.354,1.995
			c-2.264,1.329-4.063,3.128-5.396,5.396c-1.333,2.268-2,4.707-2,7.317s0.667,5.05,2,7.317c1.333,2.268,3.132,4.066,5.396,5.396
			c2.264,1.33,4.715,1.995,7.354,1.995c2.624,0,5.072-0.67,7.343-2.011c2.271-1.34,4.073-3.139,5.406-5.396
			c1.333-2.258,2-4.691,2-7.302c0-1.96-0.388-3.839-1.166-5.638c-0.776-1.799-1.842-3.373-3.196-4.724
			c-1.354-1.351-2.931-2.413-4.729-3.187S145.524,44.381,143.551,44.381z"/>
		<path class="st1" d="M166.926,42.88v30.486h8.262v1.932h-10.319V42.88H166.926z"/>
		<path class="st1" d="M180.234,42.88v30.486h8.262v1.932h-10.319V42.88H180.234z"/>
		<path class="st1" d="M206.959,44.812h-13.417v11.779h13.081v1.941h-13.081v14.834h13.417v1.932h-15.474V42.88h15.474V44.812z"/>
		<path class="st1" d="M237.791,46.659v2.834c-1.246-1.525-2.87-2.759-4.871-3.7c-2.002-0.941-4.003-1.412-6.005-1.412
			c-1.988,0-3.876,0.397-5.664,1.191c-1.788,0.795-3.366,1.89-4.734,3.286c-1.369,1.396-2.436,2.999-3.202,4.809
			c-0.766,1.809-1.149,3.687-1.149,5.632c0,1.868,0.385,3.673,1.155,5.412c0.77,1.739,1.833,3.276,3.191,4.613
			c1.414,1.337,3.038,2.417,4.871,3.239s3.678,1.233,5.533,1.233c1.252,0,2.572-0.212,3.958-0.636
			c1.386-0.423,2.691-1.013,3.916-1.769c1.225-0.756,2.226-1.603,3.003-2.54v2.834c-3.241,2.694-6.838,4.042-10.792,4.042
			c-2.954,0-5.732-0.751-8.336-2.252s-4.682-3.529-6.235-6.084s-2.331-5.309-2.331-8.262c0-3.003,0.768-5.784,2.305-8.346
			c1.536-2.562,3.606-4.592,6.209-6.089c2.604-1.498,5.414-2.247,8.43-2.247c1.302,0,2.591,0.163,3.868,0.488
			s2.502,0.804,3.674,1.433C235.755,45.001,236.825,45.764,237.791,46.659z"/>
		<path class="st1" d="M250.26,44.812v30.486h-2.068V44.812h-8.377V42.88h18.833v1.932H250.26z"/>
		<path class="st1" d="M263.691,42.88v32.418h-2.058V42.88H263.691z"/>
		<path class="st1" d="M268.457,42.88l9.637,27.684h0.084l9.585-27.684h2.068l-11.79,33.488L266.389,42.88H268.457z"/>
		<path class="st1" d="M308.002,44.812h-13.417v11.779h13.081v1.941h-13.081v14.834h13.417v1.932h-15.474V42.88h15.474V44.812z"/>
	</g>
	<path class="st1" d="M89.233,0.431v74.867h-2.058V0.431H89.233z"/>
</g>
</svg>
